/* XPM */
static char *selTrans[] = {
/* width height num_colors chars_per_pixel */
"    32    32      256            2",
/* colors */
"`` c #042664",
"`. c #1c86d4",
"`# c #044a94",
"`a c #9496ac",
"`b c #4c5a94",
"`c c #042e6c",
"`d c #fcf60c",
"`e c #1c2ee4",
"`f c #acaeac",
"`g c #244684",
"`h c #0c3e84",
"`i c #146aac",
"`j c #4c6aa4",
"`k c #5c8ebc",
"`l c #acaee4",
"`m c #1c3264",
"`n c #244a84",
"`o c #9ca2b4",
"`p c #646a8c",
"`q c #94caec",
"`r c #6c9ecc",
"`s c #c4c6c4",
"`t c #042e7c",
"`u c #040ef4",
"`v c #acbecc",
"`w c #143e74",
"`x c #c4deec",
"`y c #444eec",
"`z c #3c6aa4",
"`A c #2c5e9c",
"`B c #6c76ec",
"`C c #7c86e4",
"`D c #9492dc",
"`E c #147ac4",
"`F c #445ec4",
"`G c #4c8ab4",
"`H c #141ef4",
"`I c #144684",
"`J c #0c366c",
"`K c #9ca2d4",
"`L c #c4daec",
"`M c #bcbabc",
"`N c #145a94",
"`O c #3446e4",
"`P c #b4bad4",
"`Q c #043684",
"`R c #949ad4",
"`S c #bcc2c4",
"`T c #0c2e6c",
"`U c #4c7eac",
"`V c #5c96c4",
"`W c #3c4e84",
"`X c #6c7a9c",
"`Y c #6caad4",
"`Z c #143e84",
"`0 c #1c26ec",
"`1 c #c4c2d4",
"`2 c #2496e4",
"`3 c #acaecc",
"`4 c #24528c",
"`5 c #cccecc",
"`6 c #e4f2fc",
"`7 c #4c5acc",
"`8 c #3c669c",
".` c #747ee4",
".. c #1c82cc",
".# c #a4aacc",
".a c #b4c2ec",
".b c #9c9ad4",
".c c #142a74",
".d c #243ad4",
".e c #04468c",
".f c #1476bc",
".g c #4472a4",
".h c #143a84",
".i c #244a8c",
".j c #d4eafc",
".k c #849aac",
".l c #545ef4",
".m c #bcbacc",
".n c #1462ac",
".o c #1c4284",
".p c #042a74",
".q c #1c8edc",
".r c #b4b6b4",
".s c #5c92c4",
".t c #1c3a74",
".u c #849ec4",
".v c #cccacc",
".w c #0c327c",
".x c #cce2f4",
".y c #3c5e94",
".z c #747adc",
".A c #1c7ec4",
".B c #5496cc",
".C c #1c22f4",
".D c #a4a2d4",
".E c #bcbedc",
".F c #0c367c",
".G c #0c2e74",
".H c #7c82a4",
".I c #4c56ec",
".J c #5c66ec",
".K c #0c2a64",
".L c #1c8ad4",
".M c #1452a4",
".N c #9c9e9c",
".O c #043274",
".P c #0c428c",
".Q c #1c6ebc",
".R c #648abc",
".S c #1c3274",
".T c #acaaac",
".U c #6c7694",
".V c #b4c6d4",
".W c #6ca6cc",
".X c #04327c",
".Y c #0c16f4",
".Z c #345a94",
".0 c #8486dc",
".1 c #548ec4",
".2 c #1422ec",
".3 c #1c4684",
".4 c #d4d2d4",
".5 c #bcbebc",
".6 c #145aac",
".7 c #3c42ec",
".8 c #949ae4",
"#` c #c4c2c4",
"#. c #8c92e4",
"## c #bcd6f4",
"#a c #44668c",
"#b c #2c36f4",
"#c c #6c9ac4",
"#d c #344684",
"#e c #b4b6cc",
"#f c #b4b2bc",
"#g c #a4a6a4",
"#h c #4c6abc",
"#i c #bcc2dc",
"#j c #0c467c",
"#k c #4c72a4",
"#l c #5c5ee4",
"#m c #2c4e7c",
"#n c #5482a4",
"#o c #4c52ec",
"#p c #5486b4",
"#q c #747a9c",
"#r c #74aad4",
"#s c #7c82e4",
"#t c #0c3a8c",
"#u c #5456ec",
"#v c #1c5aa4",
"#w c #0c4a94",
"#x c #1c76bc",
"#y c #4472b4",
"#z c #747aec",
"#A c #042a5c",
"#B c #3c6eac",
"#C c #0c3264",
"#D c #14428c",
"#E c #1c2af4",
"#F c #249aec",
"#G c #9c9ed4",
"#H c #244e8c",
"#I c #0c3a84",
"#J c #345e9c",
"#K c #848ae4",
"#L c #949aac",
"#M c #146eac",
"#N c #6ca2cc",
"#O c #0412f4",
"#P c #9496dc",
"#Q c #5c9ac4",
"#R c #bcbecc",
"#S c #1466ac",
"#T c #a4a6d4",
"#U c #648ebc",
"#V c #d4d6d4",
"#W c #3c46ec",
"#X c #2c3af4",
"#Y c #747e9c",
"#Z c #74aed4",
"#0 c #545aec",
"#1 c #042e74",
"#2 c #1c2eec",
"#3 c #0c3e8c",
"#4 c #1c326c",
"#5 c #c4c6cc",
"#6 c #143e7c",
"#7 c #c4def4",
"#8 c #147acc",
"a` c #0c3674",
"a. c #9ca2dc",
"a# c #b4badc",
"aa c #949adc",
"ab c #143e8c",
"ac c #1c26f4",
"ad c #ccced4",
"ae c #3c66a4",
"af c #1c82d4",
"ag c #a4aad4",
"ah c #1c428c",
"ai c #b4b6bc",
"aj c #cccad4",
"ak c #cce2fc",
"al c #747ae4",
"am c #1c7ecc",
"an c #bcbee4",
"ao c #1c8adc",
"ap c #6c769c",
"aq c #043284",
"ar c #1422f4",
"as c #1c468c",
"at c #bcbec4",
"au c #c4c2cc",
"av c #5c5eec",
"aw c #0c326c",
"ax c #9c9edc",
"ay c #244e94",
"az c #000000",
"aA c #000000",
"aB c #000000",
"aC c #000000",
"aD c #000000",
"aE c #000000",
"aF c #000000",
"aG c #000000",
"aH c #000000",
"aI c #000000",
"aJ c #000000",
"aK c #000000",
"aL c #000000",
"aM c #000000",
"aN c #000000",
"aO c #000000",
"aP c #000000",
"aQ c #000000",
"aR c #000000",
"aS c #000000",
"aT c #000000",
"aU c #000000",
"aV c #000000",
"aW c #000000",
"aX c #000000",
"aY c #000000",
"aZ c #000000",
"a0 c #000000",
"a1 c #000000",
"a2 c #000000",
"a3 c #000000",
"a4 c #000000",
"a5 c #000000",
"a6 c #000000",
"a7 c #000000",
"a8 c #000000",
/* pixels */
"#`.5#`.5#`.5#`.5#`.5#`.5#`.5`M`M.r.r.r`M`M.5.5#`.5#`.5#`.5#`.5#`",
"`S#`.5#`.5#`.5#`.5#`.5#`.5`M.r`f.T.T.T`f.r`M.5#`.5#`.5#`.5#`.5#`",
"#`.5#`.5#`.5#`.5#`.5#`.5.5`M`f`d`d`d.N#g#f.r.5#`.5#`.5#`.5#`.5#`",
".5#`.5#`.5#`.5#`.5#`.5#``M#f.T`d`d`d.K.K`T.w.o.o.o.o#Y`o#`.5#`.5",
"#`.5#`.5#`.5#`.5#`.5#`.5`M.r.T`d`d`d`N#S.n#1#p`k.say#I`a.5#`.5#`",
"`S#`.5#`.5#`.5#`.5#`.5#`.5.r.T.N#A.O.O.A.f`t`r`Yae`Z`t`a`S#`.5#`",
"#`.5#`.5#`.5#`.5#`.5#`.5.5`M`f#g.w#Ma``h`E#1#N.g.h#Qaq`a#`.5#`.5",
".5#`.5#`.5#`.5#`.5#`.5#`.5`M.r`f.F.f..`Q.e.X.g#I`V#r`t`a`S#`.5#`",
"#`.5#`.5#`.5#`.5#`.5#`.5#`.5`M`M`Q.A`.`..w.p.F`k`Y#r.X`a.5#`.5#`",
"`S#`.5#`.5#`.5#`.5#`.5#`.5#``M.5#I...q`2.M`t`j`Y`Y#r.X`a`S#`.5#`",
"#`.5#`.5#`.5#`.5#`.5#`.5#`.5#`.5#t`.`2.Q`Q.X#I#U`Y#r.X`a.5#`.5#`",
".5#`.5#`.5#`.5#`.5#`.5#`.5#`.5#``Qaoam`Q.naq#B#D#N`Y.X`a#`.5#`.5",
".5#`.5#`.5#`.5#`.5#`.5#`.5#`.5#`#Iaf`Q.n`.`Q.W#J#H`Y`t`a`S#`.5#`",
".5.5#``M`M.5.5.5#`.5#`.5#`.5#`.5#3#3`#`2`.aq#N`Y#H#J.X`a#`.5#`.5",
"#``M.r.r.r.r#q.c`X#`.5#`.5#`.5#`.X`Q`.`.#8`Q`k`V.1`Z.i#L.5#`.5#`",
"`M.r`f.T.T`p.p.p#1.U#`.5#`.5#`.5.w#3#t#3#t.wah.oah`8`X#L#`.5#`.5",
".r#f`d`d`d```G`c.B.G`X#`.5#`.5#`#``S#``S.5`S`S`S#`.5#``S#`.5#`.5",
".r.T`d`d`d.k.V.p.x`L.w.H#`#`#`#``s#``s#`#`#`#`.5#`.5#`.5#`.5#`.5",
".r.T`d`d`d#A#m.O`k#6`I`g`s`s.v`5`5`5.v.v#`#`.5#`.5#`.5#`.5#`.5#`",
".r.T.N`m`U#j#A`J.t`4#c.y`5.4ad`P.D.0#0.z`s#`.5#`.5#`.5#`.5#`.5#`",
"`M`f#g`m`v#aaw`w`n.uak#h#.al#0#b.Y`u#Oag`s#`#`.5#`.5#`.5#`.5#`.5",
"`M.r`f.t.O#C`U.o`k.d`e.2`u`u`u`u`u`ual`5.v#`.5#`.5#`.5#`.5#`.5#`",
".5`M`M#4.e##`x.iak.l`u`u`u`u`u`u`u#X.4.v#``S#`.5#`.5#`.5#`.5#`.5",
".5.5.5`W#w`q#7.Z.j##`H`u`u`u`u`u`u`l`5`s#`#`.5#`.5#`.5#`.5#`.5#`",
"#`#`#``f#d#v`6`j.a`O`u`u`u`u`u`u`B.4.v#`#`.5#`.5#`.5#`.5#`.5#`.5",
".5#`.5#`ai`b#B`F#2.Y`u`u`u`u`u#b.m.v.v#`.5#`.5#`.5#`.5#`.5#`.5#`",
"#`.5#``sau.#`7`e`0`H#O.C#2`u`u.b.4`s#`.5#`.5#`.5#`.5#`.5#`.5#`.5",
"`S#`#`#Rag.0.l#W#b`0`y`l.E.C#u#5.v#`#`.5#`.5#`.5#`.5#`.5#`.5#`.5",
"#`#`#e.#`Dal.J#u#oal.E.4.4`R#T.v`s#``S#`.5#`.5#`.5#`.5#`.5#`.5#`",
"#`.5#e#T#..0.`#s#P`1.v.v.v`s.v#`#``S#`.5#`.5#`.5#`.5#`.5#`.5#`.5",
"`S#`#f#T`R#P#P`K`P`s`s`s#`#``S#``S#`.5#`.5#`.5#`.5#`.5#`.5#`.5#`",
"#``M#e.##G.b`K`3#`#`#``S#`.5#`.5#`.5#`.5#`.5#`.5#`.5#`.5#`.5#`.5"
};
