/* XPM */
static char *copyShape[] = {
/* width height num_colors chars_per_pixel */
"    32    32      256            2",
/* colors */
"`` c #04265c",
"`. c #1c7ec4",
"`# c #fc0204",
"`a c #949294",
"`b c #0c529c",
"`c c #c4c624",
"`d c #143e6c",
"`e c #44527c",
"`f c #a4a2a4",
"`g c #b4c2cc",
"`h c #1c326c",
"`i c #84627c",
"`j c #6482a4",
"`k c #04326c",
"`l c #cca2a4",
"`m c #446a9c",
"`n c #7496bc",
"`o c #f44244",
"`p c #f4ee0c",
"`q c #146aac",
"`r c #c4d2e4",
"`s c #646e8c",
"`t c #04327c",
"`u c #e4222c",
"`v c #8c8a8c",
"`w c #e46a6c",
"`x c #14265c",
"`y c #c4bebc",
"`z c #547e9c",
"`A c #2c4a84",
"`B c #e48284",
"`C c #a4b6c4",
"`D c #5c8aac",
"`E c #ccb2b4",
"`F c #042a74",
"`G c #4c769c",
"`H c #ecea2c",
"`I c #0c4a84",
"`J c #14326c",
"`K c #2c5684",
"`L c #cccacc",
"`M c #043a6c",
"`N c #e4565c",
"`O c #dc3e44",
"`P c #d49294",
"`Q c #6c8aac",
"`R c #042e64",
"`S c #1c86cc",
"`T c #c4a6a4",
"`U c #5c6a84",
"`V c #fcf60c",
"`W c #1476bc",
"`X c #f4161c",
"`Y c #ccd224",
"`Z c #24426c",
"`0 c #dca2a4",
"`1 c #e47674",
"`2 c #d4bebc",
"`3 c #5c92bc",
"`4 c #d49a9c",
"`5 c #1462ac",
"`6 c #acaaac",
"`7 c #0c3264",
"`8 c #64769c",
".` c #14367c",
".. c #c4c6c4",
".# c #5496cc",
".a c #dcb2b4",
".b c #1c82d4",
".c c #c4ce2c",
".d c #446284",
".e c #acc6d4",
".f c #8ca2bc",
".g c #0c3a84",
".h c #fc2224",
".i c #4c8abc",
".j c #bcbabc",
".k c #648aac",
".l c #ec5e5c",
".m c #1c76bc",
".n c #0c2a64",
".o c #1c82c4",
".p c #9c9a9c",
".q c #0c3e7c",
".r c #2c365c",
".s c #847a9c",
".t c #747e9c",
".u c #d4aeac",
".v c #4c6a94",
".w c #74aad4",
".x c #ec4a4c",
".y c #fcf20c",
".z c #ccbebc",
".A c #d4b2b4",
".B c #0c2e74",
".C c #54769c",
".D c #fcf63c",
".E c #1c4a8c",
".F c #345e8c",
".G c #f45254",
".H c #ec3234",
".I c #e49694",
".J c #0c2e64",
".K c #54729c",
".L c #fcf61c",
".M c #fc1e1c",
".N c #ec7674",
".O c #b4aaac",
".P c #0c3274",
".Q c #747a84",
".R c #f42e2c",
".S c #042a6c",
".T c #fc0a0c",
".U c #145a94",
".V c #1c3a7c",
".W c #a45a6c",
".X c #6486a4",
".Y c #d4a2a4",
".Z c #6c9ec4",
".0 c #f4f20c",
".1 c #146eac",
".2 c #cce2ec",
".3 c #0c327c",
".4 c #8c8e8c",
".5 c #e47274",
".6 c #142e5c",
".7 c #3c4674",
".8 c #b4b2b4",
"#` c #5c8eac",
"#. c #545e7c",
"## c #dc8e8c",
"#a c #d4d2d4",
"#b c #bccad4",
"#c c #ac627c",
"#d c #1c4684",
"#e c #4c5a84",
"#f c #bcaeac",
"#g c #d4da2c",
"#h c #f43a3c",
"#i c #142a74",
"#j c #bcbebc",
"#k c #5486ac",
"#l c #143a74",
"#m c #dcbabc",
"#n c #747a9c",
"#o c #749eb4",
"#p c #6c7294",
"#q c #345a84",
"#r c #ec5254",
"#s c #fc1614",
"#t c #b4cadc",
"#u c #c4b6b4",
"#v c #5482ac",
"#w c #d4cacc",
"#x c #dc9294",
"#y c #5c6e94",
"#z c #e4a6a4",
"#A c #dc9a9c",
"#B c #f44a4c",
"#C c #ccc2cc",
"#D c #244e8c",
"#E c #f43634",
"#F c #fc2a2c",
"#G c #f4ea2c",
"#H c #0c3a74",
"#I c #6492b4",
"#J c #ccce24",
"#K c #143e7c",
"#L c #24467c",
"#M c #ec6a6c",
"#N c #144a84",
"#O c #ccc6c4",
"#P c #5c5e7c",
"#Q c #c4ca2c",
"#R c #1c3674",
"#S c #446e94",
"#T c #c4c2c4",
"#U c #2c4e8c",
"#V c #042e74",
"#W c #1c8ad4",
"#X c #5c6e8c",
"#Y c #147ac4",
"#Z c #e47a7c",
"#0 c #1466a4",
"#1 c #647a94",
"#2 c #1c7abc",
"#3 c #4c6e9c",
"#4 c #ec7a7c",
"#5 c #fc1a1c",
"#6 c #fc0604",
"#7 c #949694",
"#8 c #0c569c",
"a` c #a4a6a4",
"a. c #ccb6b4",
"a# c #cccecc",
"aa c #6c8eac",
"ab c #dca6a4",
"ac c #d49e9c",
"ad c #acaeac",
"ae c #648eac",
"af c #9c9e9c",
"ag c #d4b6b4",
"ah c #547a9c",
"ai c #b4aeac",
"aj c #0c3674",
"ak c #d4a6a4",
"al c #0c367c",
"am c #b4b6b4",
"an c #ec5654",
"ao c #dc9694",
"ap c #f44e4c",
"aq c #fc2e2c",
"ar c #042664",
"as c #1c7ecc",
"at c #043274",
"au c #4c76a4",
"av c #ecea34",
"aw c #2c568c",
"ax c #043a74",
"ay c #042e6c",
"az c #1c86d4",
"aA c #fcf614",
"aB c #0c326c",
"aC c #0c3a8c",
"aD c #1c82cc",
"aE c #0c3e84",
"aF c #0c2e6c",
"aG c #fcf624",
"aH c #6486ac",
"aI c #f4f214",
"aJ c #146eb4",
"aK c #8c8e94",
"aL c #5c8eb4",
"aM c #5486b4",
"aN c #ccce2c",
"aO c #042e7c",
"aP c #1466ac",
"aQ c #1c7ac4",
"aR c #000000",
"aS c #000000",
"aT c #000000",
"aU c #000000",
"aV c #000000",
"aW c #000000",
"aX c #000000",
"aY c #000000",
"aZ c #000000",
"a0 c #000000",
"a1 c #000000",
"a2 c #000000",
"a3 c #000000",
"a4 c #000000",
"a5 c #000000",
"a6 c #000000",
"a7 c #000000",
"a8 c #000000",
/* pixels */
"#T#j#T#j#T#j#T#j#T#j#T#j#T#j#T#j#j.j#j#j#j#j`y#j#T#j#j.j#j#j#j#j",
"#j#T#j#T#j#T#j#T#j#T#j#T#j#T#j.jav#Gava`aiam.j#j#j.jav#Gava`aiam",
"#T#j#T#j#T#j#T#j#T#j#T#j#T#j.jad.y`V`V.n.n.B.3#U#U#LaI`V`V`aaf`6",
"#j#T#j#T#j#T#j#T#j#T#j#T#j#T.8`6`V.y`V#8`qaPaO`8#y#X.y`V.y`aaf`6",
"#T#j#T#j#T#j#T#j#T#j#T#j#T#j.8a`afayaj`k`.`W#V.w.Z#q`Jar.4#7af`6",
"#j#T#j#T#j#T#j#T#j#T#j#T#j#Tam.8a`.P.1ajaE`W#V.w`mal.C.Saf`fa`ad",
"#T#j#T#j#T#j#T#j#T#j#T#j#T#j.jamadal`W`.`t.c#J#gaB#v`j.S`6a`.8am",
"#j#T#j#T#j#T#j#T#j#T#j#T#j#T.j.jam.gaQ`S#2.0`V`V#S`D`j.Samam.j.j",
"#T#j#T#j#T#j#T#j#T#j#T#j#T#j#j#j#jaC.b`SaD`V`V`V`zae`j#V.j#j#j#j",
"#j#T#j#T#j#T#j#T#j#T#j#T#j#T#T`y#jaE.b#W`5ayar.Jah#`.X#V#T#j#T`y",
"#T#j#T#j#T#j#T#j#T#j#T#j#T#j#j#T#jaC#W#Y.3`b.S#q#l#IaeaO`y#j#T#j",
"#j#T#j#T#j#T#j#T#j#T#j#T#j#T#j#j#jaCas`t#8`.ay`j`K#D.k#V#j#j#j#j",
"#T#j#T#j#T#j#T#j#T#j#T#j#T#j`y.jav`Y.caE`S#2#V.ZaH#DaN#Jav`6`6am",
"#j#j#j.j#j#j#j#n#i.t#j.j#j#jam`6.y`V`V#0.1`q`t`3#v#3`p.y.y`aafad",
"`y.jav#Gava``s`FaOaO#pav#Gavaf.p`V.0`V.SaB.3aO.E#d#l`V`V`V.4af`6",
".jad.y`V`V#..n.iaO.#ay.y`V`V`v`v.4.4`a`aaf`6aa`n`Q`Q`U.Q.4#7`f`6",
"ama`aA`V.y``.f`r#V.2.e`V.y`V`v.4#7.paf`fa`.8am`yam`6a``f.p`fa`ad",
".8`6af#7`x`k`R`K#VaM.``k.6`a`aaf`fa`.8ad.8am.j#Tamamaia``6`6adam",
"amad`6af`h`D`I`c`Y#J`d`G`Za`ad.8.j#j#T#j#j#j#j#T.j.jamamam.8.j.j",
".jamad`6#R.e.vaIaAaG#1`g.dam`y.u#A`Ban.5..#T#j#T#j#j`y#j.j#j#j#j",
".j.j.8.8.V`k`7aAaG.D#.`i.W`w.Gaq.T`#`#ab..#T#T#j#T#j#T#j#T`y#j#T",
"#jamav`H#Jax`C`C.7`N.H`X`#`#`#`#`#`#.Na#..#T#j#T#j#T#j#T#j#T#j#T",
".jad.y`V`V`M#o`C#e`N`#`#`#`#`#`#`##E#w`L..#T#j#T#j#T#j#T#j#T#j#T",
"am`6`V`V.y.r#N#b.K#C`X`#`#`#`#`##6#z#a..#T#T#j#T#j#T#j#T#j#T#j#T",
".8a`af#7#7aK`eau.s`O`#`#`#`#`#`##M`L`L..#T#j#T#j#T#j#T#j#T#j#T#j",
"amai`6`fa``6.O#c`u#6`#`#`#`#`##F`E....#T#j#T#j#T#j#T#j#T#j#T#j#T",
".jam.8ad#f`T`1#E.h#s#6#5#F`#.T###T#T#T#j#T#j#T#j#T#j#T#j#T#j#T#j",
"#j#j.j#u`l#Zan#h.R#5`o#z.a#s.x.z#j#T#T#j#T#j#T#j#T#j#T#j#T#j#T#j",
"#j`y#u.Y##`1.lap#B.N#ma#`L`Pac#T#T#j#T#j#T#j#T#j#T#j#T#j#T#j#T#j",
"#T#Ta..Y##`B`1#4ao`2`L`L..#T..#T#j#T#j#T#j#T#j#T#j#T#j#T#j#T#j#T",
"#j`y`Eakao#x#x`0ag#O..#T#T#T#T#j#T#j#T#j#T#j#T#j#T#j#T#j#T#j#T#j",
"#T`y`E`lac`4ac.u`y#T#T#j#T#j#j#T#j#T#j#T#j#T#j#T#j#T#j#T#j#T#j#T"
};
