/* XPM */
static char *mirrorShape[] = {
/* width height num_colors chars_per_pixel */
"    32    32      256            2",
/* colors */
"`` c #04164c",
"`. c #147ebc",
"`# c #fc0204",
"`a c #044a84",
"`b c #8c8ea4",
"`c c #04326c",
"`d c #5482b4",
"`e c #ecea0c",
"`f c #3c4a84",
"`g c #0466ac",
"`h c #1c96e4",
"`i c #845a7c",
"`j c #9c9e9c",
"`k c #243264",
"`l c #04265c",
"`m c #3c7ebc",
"`n c #244e94",
"`o c #043e7c",
"`p c #d49e9c",
"`q c #c44254",
"`r c #045a9c",
"`s c #14265c",
"`t c #1c8ad4",
"`u c #dc2634",
"`v c #1c6eac",
"`w c #d4868c",
"`x c #3c9ee4",
"`y c #143e84",
"`z c #045294",
"`A c #54aeec",
"`B c #bcbebc",
"`C c #a4a6a4",
"`D c #041e5c",
"`E c #cc6274",
"`F c #d4c2c4",
"`G c #14327c",
"`H c #0472bc",
"`I c #846e94",
"`J c #042e6c",
"`K c #bcbabc",
"`L c #2c8ed4",
"`M c #acb2bc",
"`N c #2c3e74",
"`O c #142e7c",
"`P c #f42224",
"`Q c #14529c",
"`R c #043a74",
"`S c #1c92dc",
"`T c #247ec4",
"`U c #f4161c",
"`V c #7c7e8c",
"`W c #042a6c",
"`X c #04467c",
"`Y c #142e6c",
"`Z c #dc9294",
"`0 c #3ca6ec",
"`1 c #c4c6c4",
"`2 c #1c86cc",
"`3 c #b47e94",
"`4 c #04327c",
"`5 c #446aa4",
"`6 c #2c96dc",
"`7 c #b4425c",
"`8 c #348acc",
".` c #f44a4c",
".. c #145ea4",
".# c #144684",
".a c #acaeac",
".b c #142264",
".c c #041a5c",
".d c #8c96ac",
".e c #046eb4",
".f c #0462a4",
".g c #14266c",
".h c #1c76bc",
".i c #0c569c",
".j c #849ecc",
".k c #0c1e5c",
".l c #ccb2b4",
".m c #748abc",
".n c #4ca6e4",
".o c #1c7ebc",
".p c #2c3a64",
".q c #1c5aa4",
".r c #0c3e7c",
".s c #d4a6a4",
".t c #248edc",
".u c #cc2e3c",
".v c #0456a4",
".w c #ccbebc",
".x c #acaaac",
".y c #e47674",
".z c #1472b4",
".A c #344684",
".B c #f43634",
".C c #7c8694",
".D c #e49694",
".E c #349ee4",
".F c #0c1e6c",
".G c #ccb6b4",
".H c #f40e14",
".I c #144a8c",
".J c #949694",
".K c #0c326c",
".L c #0c265c",
".M c #04428c",
".N c #045e9c",
".O c #142a5c",
".P c #1c8ee4",
".Q c #14428c",
".R c #045694",
".S c #6caee4",
".T c #a4a6b4",
".U c #d4cacc",
".V c #0c76c0",
".W c #a46e8c",
".X c #b4b2bc",
".Y c #34427c",
".Z c #1456a2",
".0 c #2492e0",
".1 c #fc1a1c",
".2 c #0c2a70",
".3 c #d49a9c",
".4 c #44a2e0",
".5 c #5c6a9c",
".6 c #a45a7c",
".7 c #448ec4",
".8 c #ec5e5c",
"#` c #0c225e",
"#. c #5c5e94",
"## c #8caacc",
"#a c #345e9c",
"#b c #dc424c",
"#c c #e4323c",
"#d c #9c5e80",
"#e c #fcf60c",
"#f c #e47e7c",
"#g c #4c96d4",
"#h c #fc2a2c",
"#i c #9c7a9c",
"#j c #648abc",
"#k c #4c86c4",
"#l c #bc4a64",
"#m c #2c62a4",
"#n c #84aad4",
"#o c #9c96bc",
"#p c #ec2a34",
"#q c #946e94",
"#r c #c46a7c",
"#s c #ac4a64",
"#t c #64b6ec",
"#u c #5472a4",
"#v c #5cb6ec",
"#w c #3492dc",
"#x c #949294",
"#y c #2472b4",
"#z c #d4d2d4",
"#A c #dc4a54",
"#B c #245694",
"#C c #04468f",
"#D c #dca2a4",
"#E c #e4222c",
"#F c #c4bebc",
"#G c #dcbebc",
"#H c #fc1214",
"#I c #ccc6c4",
"#J c #0c367c",
"#K c #349ae4",
"#L c #d4aeac",
"#M c #ec7674",
"#N c #848a9c",
"#O c #d4b6b4",
"#P c #fc0a0c",
"#Q c #243674",
"#R c #1c82cc",
"#S c #144e9c",
"#T c #44a6ec",
"#U c #f45a5c",
"#V c #1c3274",
"#W c #0c2e6c",
"#X c #1c2e74",
"#Y c #0c1a5f",
"#Z c #0c6eb4",
"#0 c #245a9c",
"#1 c #2496e4",
"#2 c #1c6ebc",
"#3 c #1c2e6c",
"#4 c #144694",
"#5 c #2c3a74",
"#6 c #dca6a4",
"#7 c #dc9a9c",
"#8 c #041a54",
"a` c #04366c",
"a. c #046ab2",
"a# c #24366c",
"aa c #04427c",
"ab c #d4a2a4",
"ac c #1c8edc",
"ad c #144280",
"ae c #a4aaac",
"af c #2c92dc",
"ag c #2c427c",
"ah c #7c8290",
"ai c #043684",
"aj c #446eac",
"ak c #2c9ae4",
"al c #1c7ac0",
"am c #4caaec",
"an c #1c82c4",
"ao c #ccc2c4",
"ap c #f43a3c",
"aq c #ccbabc",
"ar c #b4b6b4",
"as c #fc1e24",
"at c #e48284",
"au c #c4c2c4",
"av c #cccacc",
"aw c #ec7a7c",
"ax c #fc0604",
"ay c #8c92a4",
"az c #3c82bc",
"aA c #dc9694",
"aB c #f44e4c",
"aC c #142a6c",
"aD c #34a2e4",
"aE c #e4363c",
"aF c #041654",
"aG c #044a8c",
"aH c #043274",
"aI c #9c9ea4",
"aJ c #042664",
"aK c #043e84",
"aL c #045aa4",
"aM c #142664",
"aN c #1c8adc",
"aO c #04529c",
"aP c #a4a6ac",
"aQ c #0472c4",
"aR c #042e74",
"aS c #2c3e7c",
"aT c #1452a4",
"aU c #043a7c",
"aV c #1c92e4",
"aW c #042a74",
"aX c #1c86d4",
"aY c #348ad4",
"aZ c #14468c",
"a0 c #acaeb4",
"a1 c #046ebc",
"a2 c #0462ac",
"a3 c #0c1e64",
"a4 c #1c7ec4",
"a5 c #0c2664",
"a6 c #045ea4",
"a7 c #142a64",
"a8 c #04569c",
/* pixels */
"au`Bau`Bau`Bau`Bau`Bar`M`M.X.X`M.X.X`Ma0aeaPaIaI.x.aar`Kau`Bau`B",
"`Bau`Bau`Bau`B`K.a#e#e#e.k#`.ba5.ga5.gaM#`#e#e#e`j.x.a`K`Bau`Bau",
"`B`B`B`B`B#F`B.X.C#e#e#e`l`JaRaHai#Jai`4aR#e#e#e#x`j.xar#F`Bau`B",
"#F`Bau#F`B`B`K#NaM`e#e#eaa`.#R`t`h`h`haN#C#e#e#e#x`j.x.X`Bau`Bau",
"`B`Bau`Bauauay`Y#Yai`R``aKalanaX.0aV.0.Mad.z#``k#x`j.xarau`Bau`B",
"`B`B`Karar.d#X`DaK.faU#8#C`.aX`taV.0.M#4a4a4a5a#`j.x.a`K`Bau`Bau",
"`Kara0.xahaM`DaK`g`gaK#8aG`2`2ac.t.Z#SaXac#R.2.p.x.aar`K`Bau`Bau",
"`K.a#e#e#e.caU`ga1aQ#C.F.v`h.0aNaTaT.t`SacaXaCaSar`K`K`Bau`Bau`B",
"ar.x#e#e#ea`a6`ga1a1#C.c.vaVaX#S.Z.0aV.taV.t`Oag`B`B`B#F`Bau`Bau",
"ar.x#e#e#e`aa6`g.ea..M.c.va.#4.Z.t`S.PaV.0ac`Oag#F`Bau`Bau`Bau`B",
"ar.x#3#8`J`caU#C`r`g.M`D.M#4.ZacaV.0aV.0aVac`Oagau`Bau`Bau`Bau`B",
"`K.aa#aJ`z`z`XaUai#e#e#e.2.Z`2ac.taVacaV.0ac`Oagau`Bau`Bau`Bau`B",
"`Kar.paW`ra.a1`g`r#e#e#eadalan`tac.0aV.0aVac`Oagau`Bau`Bau`Bau`B",
"`B`KaSaWa2a1a1a.a8#e#e#e.K`v#RaXac.0.P`S.0ac`Oagau`Bau`Bau`Bau`B",
"`B`BaSaWa2aQa1.vaR#Ca`#8aJ.ra4aV.0aV.0aV.0.P`Oagau`Bau`Bau`Bau`B",
"`B`K`NaWa2a1aOaHa8`gaU#8aGaK`Q`SaVacaV.taVac`Oagau`Bau`Bau`Bau`B",
"`Kar#5`WaL#CaHaL.e`gaK.c.i#R.Q#2#1.0.0#1.0`S`Oagau`Bau`Bau`Bau`B",
"`K.a#e#e#e`caLa.a.a..Ma3..#1`T`naY#Kaf`6#1.0`Oagau`Bau`Bau`Bau`B",
"ar.x#e#e#e`z.f`ga1aQ`Q#X#y`0.4`maj.n.4`xak.0`Oagau`Bau`Bau`Bau`B",
"ar.x#e#e#e.R.f`g.Va4#m.A#k#v.S.j#q.6#l#d#Kaf`Gagau`Bau`Bau`Bau`B",
"ar.x`V`s```c.N#Z.o`L#u`i.W#r#A#pax`#`#.m`x#1`Gagau`Bau`Bau`Bau`B",
"`K.a`C`V`s.c`o.z`m`7`u`U`#`#`#`#`#`##s#gaD.0`Oag`B`B`B#F`Bau`Bau",
"`Kara0.xah`YaM#B.7`q`#`#`#`#`#`#`##c#j#a`L.t.2`Nar`K`K`Bau`Bau`B",
"`B`K`K.Xar`baS.A`d##`U`#`#`#`#`#ax#o`A#B.q`T.2#5.x.aar`K`Bau`Bau",
"`B`B`B`B`Bau.T.5`I#b`#`#`#`#`#`#`E.S.4`LaZ#e#e#e`j.x.a`K`B`Bau`B",
"au#Fauau`1#Iav`w#E#P`#`#`#`#`##p#nam.E.0.h#e#e#e#x`j.xar`B#F`Bau",
"`Bau`B`1ao#O#f.B`P#P#P#H`P`#ax#d`5`n`y`4aH#e#e#e#x`j.x.X`B`Bau`B",
"auauau.w.s#f#Uap#h`UaE`3#i.H.u#..A#QaCaM#`.k.k`k.J`j.xar`B#F`Bau",
"`Bauaq.s`Z.y.8aB.`#M#G#z#z#7abav`1au`B`Ka0.x`j`j`j.x.a`K`Bau`Bau",
"auau.lab`Z#f#M#f.D`Favav`1`1`1`1au`B`B`Kar.a.x.x.x.aar`K`B`Bau`B",
"`B#F.G.s.3`Z`Z#D#O#I`1`1auauau`Bauau`B`B`K`Kararar`K`K`B`Bau`Bau",
"au#F.l.s.3aA`p#L#Fauauau`Bau`Bau`Bau`Bau`B`B`K`K`B`B`B#F`Bau`Bau"
};
