/* XPM */
static char *mirrorSelection[] = {
/* width height num_colors chars_per_pixel */
"    32    32      256            2",
/* colors */
"`` c #04164c",
"`. c #147ebc",
"`# c #cc02cc",
"`a c #04467c",
"`b c #8c8ea4",
"`c c #040ef4",
"`d c #3c4a84",
"`e c #042e6c",
"`f c #5482b4",
"`g c #0462a4",
"`h c #ecea0c",
"`i c #a4aaac",
"`j c #1c96e4",
"`k c #244ae4",
"`l c #243264",
"`m c #244e94",
"`n c #04265c",
"`o c #3c7ebc",
"`p c #043a74",
"`q c #045694",
"`r c #bcbabc",
"`s c #1c2ae4",
"`t c #64a2ec",
"`u c #2c62a4",
"`v c #1c8ad4",
"`w c #9c9e9c",
"`x c #446aa4",
"`y c #142264",
"`z c #142e6c",
"`A c #3c9ee4",
"`B c #044694",
"`C c #5c8ac4",
"`D c #046eb4",
"`E c #a4aacc",
"`F c #14569c",
"`G c #143e84",
"`H c #c4c2c4",
"`I c #243ef4",
"`J c #2c8ed4",
"`K c #4c62cc",
"`L c #0c1a64",
"`M c #9492dc",
"`N c #141eec",
"`O c #04366c",
"`P c #042a6c",
"`Q c #9c9ed4",
"`R c #247ec4",
"`S c #3c46ec",
"`T c #2c3e74",
"`U c #1c92dc",
"`V c #acb2bc",
"`W c #045e9c",
"`X c #b4bad4",
"`Y c #1c32f4",
"`Z c #1c76bc",
"`0 c #3ca6ec",
"`1 c #7482cc",
"`2 c #1472b4",
"`3 c #041e5c",
"`4 c #1c86cc",
"`5 c #144684",
"`6 c #0c2e6c",
"`7 c #c4c6c4",
"`8 c #2c96dc",
".` c #348acc",
".. c #04427c",
".# c #7caee4",
".a c #142a5c",
".b c #045294",
".c c #0c76bc",
".d c #0416f4",
".e c #7c7e8c",
".f c #0c225c",
".g c #0c569c",
".h c #bcc2c4",
".i c #54aeec",
".j c #1c2e6c",
".k c #4c72dc",
".l c #3c5ed4",
".m c #4ca6e4",
".n c #7c86e4",
".o c #0c1a5c",
".p c #1c7ec2",
".q c #949694",
".r c #04327c",
".s c #046ab2",
".t c #344aec",
".u c #2c3a64",
".v c #245694",
".w c #0c3e7c",
".x c #0456a4",
".y c #bcbacc",
".z c #248edc",
".A c #a4a6a5",
".B c #5c6a9c",
".C c #0c6eb4",
".D c #b4b6ce",
".E c #949ad8",
".F c #a4a6d4",
".G c #d4d2d4",
".H c #349ee4",
".I c #448eec",
".J c #144e9c",
".K c #7c8694",
".L c #041a5c",
".M c #04468c",
".N c #043271",
".O c #acaaac",
".P c #043e84",
".Q c #242eec",
".R c #2c62ec",
".S c #1c8ee4",
".T c #14266c",
".U c #0472c4",
".V c #145ea4",
".W c #14428c",
".X c #1c26f4",
".Y c #0c2a70",
".Z c #a4a2d4",
".0 c #34427c",
".1 c #2492e0",
".2 c #b4b2bc",
".3 c #2c36d4",
".4 c #1c7ac0",
".5 c #44a2e0",
".6 c #cccacd",
".7 c #3492dc",
".8 c #0c16f4",
"#` c #0c2660",
"#. c #747abc",
"## c #4c5e9c",
"#a c #5c5eec",
"#b c #5c66ec",
"#c c #6496f4",
"#d c #1c6eac",
"#e c #3c4ed4",
"#f c #446af4",
"#g c #fcf60c",
"#h c #4c56ec",
"#i c #344684",
"#j c #4c96d4",
"#k c #4c52ec",
"#l c #4c86c4",
"#m c #345e9c",
"#n c #64b2ec",
"#o c #747ae4",
"#p c #4476b4",
"#q c #343ee4",
"#r c #4c6ef4",
"#s c #6472b4",
"#t c #144694",
"#u c #2c36f4",
"#v c #747ee4",
"#w c #2452ec",
"#x c #043684",
"#y c #5cb6ec",
"#z c #8c96ac",
"#A c #4c5ab4",
"#B c #949294",
"#C c #8486dc",
"#D c #3452f4",
"#E c #64aaec",
"#F c #acaecc",
"#G c #1c5aa4",
"#H c #2c82cc",
"#I c #bcbedc",
"#J c #2472b4",
"#K c #349ae4",
"#L c #3c8ecc",
"#M c #848a9c",
"#N c #243674",
"#O c #142e7c",
"#P c #2436f4",
"#Q c #1c82cc",
"#R c #44a6ec",
"#S c #7c82e4",
"#T c #2c4aec",
"#U c #5472d4",
"#V c #9c9ad4",
"#W c #0c367c",
"#X c #2496e4",
"#Y c #c4c2d4",
"#Z c #0c1e5c",
"#0 c #04428c",
"#1 c #142a6c",
"#2 c #2c3a74",
"#3 c #a4a6b4",
"#4 c #1c6ebc",
"#5 c #041a54",
"#6 c #044a84",
"#7 c #0466ac",
"#8 c #24366c",
"a` c #043e7c",
"a. c #045a9c",
"a# c #bcbebc",
"aa c #1c2ee4",
"ab c #1c8edc",
"ac c #446eac",
"ad c #142662",
"ae c #0472bc",
"af c #144280",
"ag c #2c92dc",
"ah c #0c1e66",
"ai c #1422f0",
"aj c #9ca2d4",
"ak c #2c427c",
"al c #144a8c",
"am c #2c9ae4",
"an c #7c8290",
"ao c #1c3274",
"ap c #4caaec",
"aq c #1c82c4",
"ar c #245a9c",
"as c #14529e",
"at c #acaeac",
"au c #b4b6b4",
"av c #0c1af0",
"aw c #3442ec",
"ax c #848ad4",
"ay c #8c92a4",
"az c #0412f4",
"aA c #9496dc",
"aB c #0c326c",
"aC c #045aa4",
"aD c #bcbecc",
"aE c #34a2e4",
"aF c #044a8c",
"aG c #64b6ec",
"aH c #14327c",
"aI c #041654",
"aJ c #042e74",
"aK c #0462ac",
"aL c #042664",
"aM c #043a7c",
"aN c #04569c",
"aO c #1c2aec",
"aP c #1c8adc",
"aQ c #9c9ea4",
"aR c #046ebc",
"aS c #a4aad4",
"aT c #1456a4",
"aU c #c4c2cc",
"aV c #042a74",
"aW c #9c9edc",
"aX c #2c3e7c",
"aY c #1c92e4",
"aZ c #045ea4",
"a0 c #1c86d4",
"a1 c #14468c",
"a2 c #c4c6cc",
"a3 c #348ad4",
"a4 c #142a64",
"a5 c #04529c",
"a6 c #0c76c4",
"a7 c #0c2264",
"a8 c #1c2e74",
/* pixels */
"`Ha#`Ha#`Ha#`Ha#`Ha#au`V`V.2.2`V.2.2`Vat`i.AaQaQ.Oatau`r`Ha#`Ha#",
".h`Ha#`Ha#`Ha#`rat#g#g#g#Z.f`y#`.T#`.T.Ta7`#`#`#`w.Oat`ra#`Ha#`H",
"a#`ra#a#a#`H`rauan#g#g#g`n`eaJ.r#x#W#x.raJ`#`#`##B`w.Oau`Ha#`Ha#",
"`Ha#`H`Ha#a#`r#Mad`h#g#g..`.#Q`v`j`j`jaP.M`#`#`##B`w.Aau`Ha#`Ha#",
"a#a#`Ha#`H`Hay#1`LaM`paIa`.4aqa0.1aY.1#0.w`2`n.a.q`w.Oau`Ha#`Ha#",
"a#`r`r.2auaya8`3#0aZaM#5.M#Q`4`vaY.1#0#t.p.pad.u`w.Oat`ra#`Ha#`H",
"`rauat.Oana4.L.P#7.s.PaIaF`.a0ab.zaT.Ja0ab#Q.Y#2.Oat.2`ra#`Ha#`H",
"`rat`#`#`##5aM#7aR.U`B`3.x`j#XaPasasabaY.z`v.Y`Tau`r`ra#`Ha#`Ha#",
"au.O`#`#`#`OaZ#7aRaR`B`L.x`ja0.JaT.1aY.z`U.z`6.0a#a#a#a#`Ha#`Ha#",
"au.O`#`#`##6`W.s.s.s#0.L.x.s#taT.zaY.zaYaY.z#Oaka#`H`Ha#`Ha#`Ha#",
"au`i`l#5`e.N`p.Ma.#7#0`3#0#taTab`U.1aY.1aYab`6#i`Ha#`Ha#`Ha#`Ha#",
"`rat#8`P.b.b`aaM#x#g#g#g.Y`F`4ab.zaY.S`U.1.S#Oak`Ha#`Ha#`Ha#`Ha#",
"`rau.uaLa..saR#7a.#g#g#g.w.paqa0ab.1aY.1aY.z`6#ia#`Ha#`Ha#`Ha#`H",
"a#`raXaVaKaRaR.saN#g#g#gaB#d#Q`vabaY.zaYaY.S#OakaUa#`Ha#`Ha#`Ha#",
"a#a#aXaVaKaeaR.xaJ`a`O#5aLaf.4aY.1aYaY.1aY.z`6#ia#`Ha#`Ha#`Ha#`H",
"a#`r`TaVaKaRa5.raN#7aM.L.M.PasaY`U.zaYab.1.S#Oak`Ha#`Ha#`Ha#`Ha#",
"`rau#2`PaC.M.NaC`D#7.P.L.g`4af#4#X.1.1#X.1ab#Oak`Ha#`Ha#`Ha#`Ha#",
"`rat#g#g#g.NaC.s.s.s#0ah.V#X`R`m`J#Kag`8#X.1aHak`Ha#`Ha#`Ha#`Ha#",
"au.O#g#g#g.b`g#7aR.Uasa8#J`0.5`oac.m.5`Aam.1#Oak`Ha#`Ha#`Ha#`Ha#",
"au.O#g#g#g`q`g#7.c.p`u#i#l#y#n`t#U.l#T.R.HagaHak`Ha#`Ha#`Ha#`Ha#",
"au.O.e.f``.N`W.C.p`J#p#A.k#r#D`Yaz`c`c.I.H`8#Oak`Ha#`Ha#`Ha#`Ha#",
"`rat.A.e.a#5a``2#H`kaa`N`c`c`c`c`c`c#e#jaE.1`6#i`ra#a#`Ha#`Ha#`H",
"`rauat.Oan#1.T.v#L`k`c`c`c`c`c`c`c#P`C`u`J.z.YaXau`r`ra#a#`Ha#`H",
"a#`r`rauau`baX#i`f.#`N`c`c`c`c`c`c#c.i.v#G`R.Y#2.Oatau`ra#`Ha#`H",
"a#a#a#a#`H.h#3.B#s.t`c`c`c`c`c`c#f#n.5`Ja1`#`#`#`w.A.2aua#`Ha#`H",
"`H`H`H`H`Ha2.6.n`s.8`c`c`c`c`caO`tap#K`U`Z`#`#`##B`w.Oaua#`Ha#`H",
"a#`Ha#`HaU.D#S`S.Xavaz`N.X`c`c`K`x`maf#WaJ`#`#`##B`w`i.2`r`Ha#`H",
"`H`H`HaDaS.n#a`S#u.X#q`1#..8.3##`d#N#1`ya7.f`3`l.q`w.Oaua#`Ha#`H",
".h`H.D`E`M#o#b#h#k#o#I.G.G.E.F.6`7`Ha#auat.A.A`w`w.Aat`ra#`Ha#`H",
"`Ha#.D.F`M#C#v#SaAaU.6.6`7.6`7`H`H`Ha#`rau.2.A.O.Oatau`ra#`Ha#`H",
".h`H.2.F.E`MaAaj.y`7`7`7`H`H`H.h`Ha#`Ha#`r`rauauau`r`ra#a#`Ha#`H",
"`H`r.D`E`Q.Eaj#Fa#aU`H.h`Ha#`Ha#a#`Ha#`Ha#a#`r`r`ra#a#`Ha#`Ha#`H"
};
